/* XPM */
static char *Tux[] = {
/* columns rows colors chars-per-pixel */
"30 30 219 2 ",
"   c #5B4C3F",
".  c #7C553A",
"X  c #1D2D58",
"o  c #1D3666",
"O  c #223D67",
"+  c #223E72",
"@  c #37396F",
"#  c #3B3556",
"$  c #433B5C",
"%  c #27524E",
"&  c #374A5B",
"*  c #2E4D4A",
"=  c #326453",
"-  c #39695B",
";  c #3F765A",
":  c #1E4B77",
">  c #26416B",
",  c #2B476D",
"<  c #34556D",
"1  c #23487C",
"2  c #304D77",
"3  c #28567D",
"4  c #355476",
"5  c #366463",
"6  c #376C64",
"7  c #3A7165",
"8  c #35706B",
"9  c #2C6D72",
"0  c #2E7078",
"q  c #475459",
"w  c #47664F",
"e  c #5B694D",
"r  c #596A5A",
"t  c #437D5D",
"y  c #497455",
"u  c #4E6E51",
"i  c #69755D",
"p  c #756845",
"a  c #495464",
"s  c #425976",
"d  c #444E61",
"f  c #6A4D6D",
"g  c #426C6B",
"h  c #427964",
"j  c #4C7B62",
"k  c #57667C",
"l  c #546A63",
"z  c #6E737A",
"x  c #9F723F",
"c  c #B67839",
"v  c #A7643B",
"b  c #AE6E43",
"n  c #9F7E6F",
"m  c #8E5E48",
"M  c #3A9577",
"N  c #448A5F",
"B  c #42835E",
"V  c #569C5E",
"C  c #4E8B5C",
"Z  c #758B59",
"A  c #57A15F",
"S  c #5AA35F",
"D  c #6CAC5B",
"F  c #65A95D",
"G  c #71AD5B",
"H  c #7EA757",
"J  c #77B35B",
"K  c #5B8660",
"L  c #469160",
"P  c #4A9561",
"I  c #479668",
"U  c #539C61",
"Y  c #4E8062",
"T  c #678B60",
"R  c #58A262",
"E  c #60A560",
"W  c #BD843C",
"Q  c #CC913D",
"!  c #C4863E",
"~  c #81955D",
"^  c #B2914A",
"/  c #86BA5A",
"(  c #97B95E",
")  c #A4BA61",
"_  c #C78D41",
"`  c #CB9342",
"'  c #D4A952",
"]  c #C4A370",
"[  c #E0BE60",
"{  c #99C25C",
"}  c #A0C55D",
"|  c #96C260",
" . c #A7C962",
".. c #B9CB65",
"X. c #B9D166",
"o. c #1E4C82",
"O. c #234E84",
"+. c #235E8B",
"@. c #265586",
"#. c #345B87",
"$. c #314A81",
"%. c #29628A",
"&. c #24658C",
"*. c #396585",
"=. c #39778D",
"-. c #266A94",
";. c #2D769C",
":. c #2C7A9E",
">. c #23759B",
",. c #357994",
"<. c #297CA1",
"1. c #69598C",
"2. c #556E8B",
"3. c #766B97",
"4. c #6D758C",
"5. c #537EA1",
"6. c #50548E",
"7. c #8E78AB",
"8. c #2F8098",
"9. c #32849B",
"0. c #369B88",
"q. c #3AA397",
"w. c #2583A4",
"e. c #2D82A4",
"r. c #298AA5",
"t. c #358BA2",
"y. c #398FA8",
"u. c #3287A6",
"i. c #2D91AA",
"p. c #3694AB",
"a. c #289AB4",
"s. c #369CB8",
"d. c #2BA6BC",
"f. c #37A9BC",
"g. c #38B4BF",
"h. c #4F8992",
"j. c #758698",
"k. c #4BAA90",
"l. c #66B398",
"z. c #4C98A7",
"x. c #4996A7",
"c. c #7794A7",
"v. c #46BAB8",
"b. c #50A2AC",
"n. c #72ACA3",
"m. c #73B3A9",
"M. c #5EC2B5",
"N. c #6DC6AF",
"B. c #3EBBC7",
"V. c #3CB5C4",
"C. c #2BAEC1",
"Z. c #41BBC8",
"A. c #39CDD2",
"S. c #44C2CD",
"D. c #4CCACF",
"F. c #49C4C8",
"G. c #53CDCD",
"H. c #5CC4C5",
"J. c #55D1CD",
"K. c #5AD3CD",
"L. c #4BCAD2",
"P. c #47C6D2",
"I. c #54CFD4",
"U. c #57D2D1",
"Y. c #64D4CD",
"T. c #6AD7CC",
"R. c #7CDACA",
"E. c #6AD9D5",
"W. c #6AD6D2",
"Q. c #74D9D1",
"!. c #67CDCA",
"~. c #8C8D91",
"^. c #928CAF",
"/. c #AE95B7",
"(. c #9CA3A3",
"). c #ABAEAF",
"_. c #A7948F",
"`. c #CBAB94",
"'. c #92D6BC",
"]. c #8AD5BB",
"[. c #D4CBBE",
"{. c #9798C4",
"}. c #AE98C8",
"|. c #8DABC8",
" X c #9AA9CA",
".X c #8CB0CC",
"XX c #96B9CE",
"oX c #98BDD0",
"OX c #B8A8CD",
"+X c #B5B5CB",
"@X c #C5B6CE",
"#X c #CAA7C8",
"$X c #8CDDC7",
"%X c #87DDC9",
"&X c #95DFC4",
"*X c #99DFC2",
"=X c #9AC4D1",
"-X c #A8CCD5",
";X c #ACD0D7",
":X c #BAC9D1",
">X c #9AE0C3",
",X c #8EE0C7",
"<X c #C7CDC2",
"1X c #D9D9C6",
"2X c #C8D4DA",
"3X c #D5D5DB",
"4X c #CFCAD2",
"5X c #EDDCD9",
"6X c #E4DAD8",
"7X c #F1DBDA",
"8X c #EBE9CE",
"9X c #EDE2D4",
"0X c #ECECD1",
"qX c #E5E6D2",
"wX c #F0E2D9",
"eX c #EFF1D5",
"rX c #F4F5DC",
"tX c #F0F2D5",
"yX c #F8F7E0",
/* pixels */
"> > > > > > > > > > > > > > > > > > > > > > > > > > > > > > ",
"> 3 %.%.%.%.%.%.;.9.t.y.z.z.z.z.z.z.x.t.9.;.-.%.&.%.+.%.3 > ",
"> %.:.;.:.e.<.<.s.g.S.I.E.E.E.E.E.E.I.S.g.f.u.:.r.:.;.:.%.> ",
"> %.;.;.;.r.i.s.V.F.G.G.b.=.=.=.=.h.H.G.F.Z.f.i.r.:.;.;.%.> ",
"> %.e.e.e.i.f.B.D.K.H.=.+.w.a.a.>.@.*.H.K.L.Z.f.s.e.e.e.%.> ",
"> ;.s.s.s.Z.P.L.K.!.*.1 w.C.A.A.d.<.O.=.!.Y.D.P.S.f.s.s.;.> ",
"> :.f.g.Z.G.J.Y.$Xn.O O.+.w.d.a.<.+.O.> n.,XT.J.G.Z.V.f.8.> ",
"> t.B.B.S.J.T.R.&Xh.O 2.4.#.>.-.*.j.s o h.*X%XT.J.S.B.B.t.> ",
"> y.L.L.L.J.R.>X'.< k 1X1Xj.o.O.).1X[.s < '.>X$XK.L.L.L.y.> ",
"> y.I.J.J.W.%X>X'.< k 4.z ~.d a (.a ).k < '.>X$XW.J.J.J.y.> ",
"> ,.v.J.W.R.$X>X'.s (.).~.' [ ' ] ~.<X~.< '.>X&X%XW.U.D.t.> ",
"> 9 q.F.W.$X*X*X'.2.#X7X`.c ' Q b [.7X/.< '.>X>X&XQ.I.S.8.> ",
"> 9 M q.Y.$X*X>Xn., 7.@X:Xn v b _.4X#X1.O n.>X*X&XQ.I.v.0 > ",
"> 8 I M q.N.].m.t.>.4 ^.+X X^.^. XOX/.#.>.9.m.>X&XQ.v.0.8 > ",
"> 7 U I M l.l.t.d.&.c.qX4X@XOXOX@X6X0Xc.-.d.h.].].M.k.I 7 > ",
"> h A A A U 0 a.-.4 <XeXtXrX7XwXrXrXeX<X4 w.r.h.l.M I A h > ",
"> h A A R t +.>.: c.9X0XrXyXyXrXyXrX0X9X4.: >.3 I R U A h > ",
"> h F D D - @.1 2 +X9X0XtXrXyXrXrXeX9XwX).O @.@.h G D F h > ",
"> j J / H , O.o 2.3X5X9X0XeXeXeX0X0X9X5X@X2 + O.l ( / J j > ",
"> T { } ) , + X 5.2X6X5X9X8X8X8X8X9X5X5X:X#.X 1 l X. .{ T > ",
"> K / / ( & r q 5.-X2X6X5X9X9X9X5X5X5X3X=X#.q a i X.{ / K > ",
"> Y D J ( ( ..r 6. X;X2X6X5X5X5X5X6X2X-X|.$.i ..) { / J Y > ",
"> h R S G | ..Z @ ^.oX;X2X3X3X3X3X:X-XXX^.@ ~ X. .J D D h > ",
"> 7 L L P R G G & 1.{.oX=X;X;X;X-X=X X}.1.& G J E P L P 7 > ",
"> 6 L L L P U V y # f 7.{..X.X.X|.{.7.1.$ y A V P L L L 7 > ",
"> 6 N N N N B Z ^ _ c m f 1.3.3.1.f m W _ ^ K B N N N N 6 > ",
"> 5 t t t t = p c ` ! W   % % % * . ` ! _ x e - t t t t 5 > ",
"> 5 t t t t t ; u e w w = = = = = = w w e y t t t t t B g > ",
"> < 5 5 5 5 5 5 5 5 5 5 5 5 5 5 5 5 5 5 5 5 5 5 5 5 5 g 2., ",
"> > > > > > > > > > > > > > > > > > > > > > > > > > > > , > "
};
