/* XPM */
static char * TwoByThreeLeft_xpm[] = {
"20 20 2 1",
" 	c #2C313A",
".	c #A5ADBE",
"                    ",
"                    ",
"                    ",
"                    ",
"   .........        ",
"   .........        ",
"   .........        ",
"   .........  ...   ",
"   .........  ...   ",
"   .........  ...   ",
"   .........  ...   ",
"   .........  ...   ",
"   .........  ...   ",
"   .........  ...   ",
"   .........  ...   ",
"   .........  ...   ",
"                    ",
"                    ",
"                    ",
"                    "};
