/* XPM */
static char *XMonad[] = {
/* columns rows colors chars-per-pixel */
"20 20 98 2 ",
"   c #000000",
".  c #010000",
"X  c #010100",
"o  c #000101",
"O  c #010101",
"+  c #020000",
"@  c #000201",
"#  c #000202",
"$  c #000302",
"%  c #000303",
"&  c #020202",
"*  c #020303",
"=  c #030303",
"-  c #000504",
";  c #020505",
":  c #000807",
">  c #060807",
",  c #000A09",
"<  c #00100E",
"1  c #001513",
"2  c #001614",
"3  c #011715",
"4  c #001916",
"5  c #001B19",
"6  c #001E1B",
"7  c #151514",
"8  c #1B1C1A",
"9  c #00231F",
"0  c #002421",
"q  c #012E2A",
"w  c #012F2A",
"e  c #013E38",
"r  c #262724",
"t  c #363733",
"y  c #01403A",
"u  c #01413B",
"i  c #014A43",
"p  c #014E46",
"a  c #015850",
"s  c #015950",
"d  c #015A51",
"f  c #015B52",
"g  c #015E55",
"h  c #015F56",
"j  c #01695F",
"k  c #016A60",
"l  c #016C62",
"z  c #017065",
"x  c #017167",
"c  c #017368",
"v  c #017B6F",
"b  c #646760",
"n  c #656760",
"m  c #696C64",
"M  c #75786F",
"N  c #7A7D74",
"B  c #02897C",
"V  c #018C7F",
"C  c #029284",
"Z  c #029385",
"A  c #029688",
"S  c #029789",
"D  c #029C8D",
"F  c #02A091",
"G  c #02A292",
"H  c #02A696",
"J  c #02AA9A",
"K  c #02AD9D",
"L  c #02AF9E",
"P  c #02B09F",
"I  c #02B1A0",
"U  c #02B1A1",
"Y  c #02B2A1",
"T  c #02B4A2",
"R  c #02B4A3",
"E  c #02B5A4",
"W  c #02B6A4",
"Q  c #02B6A5",
"!  c #02B7A5",
"~  c #02B8A6",
"^  c #02B9A7",
"/  c #02BBA9",
"(  c #02BCAA",
")  c #02BDAB",
"_  c #02BEAC",
"`  c #02C1AF",
"'  c #02C3B1",
"]  c #02C4B2",
"[  c #02C5B2",
"{  c #02C6B3",
"}  c #02CAB7",
"|  c #8A8D83",
" . c #A4A99D",
".. c #C1C6B8",
"X. c #CACFC0",
"o. c #D0D6C7",
"O. c #D5DACB",
"+. c #DBE1D1",
/* pixels */
"                                        ",
"                                        ",
"                                        ",
"      < l j z 0           m M N 8       ",
"        l } ` D -       b O.+.|         ",
"          B W ) z     7 ..X. .          ",
"          2 K Y ) y     n o.r           ",
"            y ) Y K 4   > t             ",
"              z ) ^ V                   ",
"                S R _ g   -             ",
"              4 H R P ^ w               ",
"              C ) Y Y W G ,             ",
"            k ) _ a a _ / v             ",
"          e / ^ C     A W ) i   %       ",
"        1 J R Y 6     0 W Y K 5         ",
"      : D ] ' p         a ] ] G ,       ",
"      w c k a             j j c w       ",
"                                        ",
"                                        ",
"                                        "
};
